# xmcd
#
# Track frame offsets:
#	150
#	16492
#	39560
#	62512
#	97047
#	130042
#	150842
#	171820
#	196362
#	222947
#	244125
#	279842
#	292472
#	310805
#	333187
#
# Disc length: 4652 seconds
#
# Revision: 1
# Processed by: cddbd v1.5.2PL0 Copyright (c) Steve Scherf et al.
# Submitted via: EZCDAudioConverter 7.1.2.1
#
DISCID=d2122a0f
DTITLE=Various Artist - The Funk Box [CD2]
DYEAR=2000
DGENRE=R&B - Funk
TTITLE0=Curtis Mayfield - Future Shock
TTITLE1=Gil Scott-Heron and Brian Jackson - The Bottle
TTITLE2=Tower Of Power - What Is Hip
TTITLE3=James Brown - The Payback
TTITLE4=The O'Jays - For the Love of Money
TTITLE5=Kool and the Gang - Hollywood Swinging
TTITLE6=Rufus and Chaka Khan - Tell Me Something Good
TTITLE7=The Blackbyrds - Do It, Fluid
TTITLE8=B.T. Express - Do It
TTITLE9=The Meters - Just Kissed My Baby
TTITLE10=Ohio Players - Skin Tight
TTITLE11=George McCrae - I Get Lifted
TTITLE12=The Temptations - Shakey Ground
TTITLE13=Average White Band - School Boy Crush
TTITLE14=Jermaine Jackson - Erucu
EXTD=
EXTT0=
EXTT1=
EXTT2=
EXTT3=
EXTT4=
EXTT5=
EXTT6=
EXTT7=
EXTT8=
EXTT9=
EXTT10=
EXTT11=
EXTT12=
EXTT13=
EXTT14=
PLAYORDER=
